<svg id="Icons" height="512" viewBox="0 0 74 74" width="512" xmlns="http://www.w3.org/2000/svg"><path d="m41.44 4.5h-2.97a1 1 0 0 1 0-2h2.97a1 1 0 0 1 0 2z"/><path d="m67 56.5h-60a5.006 5.006 0 0 1 -5-5v-44a5.006 5.006 0 0 1 5-5h14.56a1 1 0 0 1 0 2h-14.56a3 3 0 0 0 -3 3v44a3 3 0 0 0 3 3h60a3 3 0 0 0 3-3v-44a3 3 0 0 0 -3-3h-18.56a1 1 0 0 1 0-2h18.56a5.006 5.006 0 0 1 5 5v44a5.006 5.006 0 0 1 -5 5z"/><path d="m31.47 4.5h-2.91a1 1 0 0 1 0-2h2.91a1 1 0 0 1 0 2z"/><path d="m71 43.5h-68a1 1 0 0 1 0-2h68a1 1 0 0 1 0 2z"/><path d="m14.333 49.5h-3.666a1 1 0 0 1 0-2h3.666a1 1 0 0 1 0 2z"/><path d="m48.561 63.958a1 1 0 0 1 -1-1v-6.458h-21.111v6.458a1 1 0 0 1 -2 0v-7.458a1 1 0 0 1 1-1h23.111a1 1 0 0 1 1 1v7.458a1 1 0 0 1 -1 1z"/><path d="m53.5 71.5h-33a1 1 0 0 1 -1-1v-3.708a4.839 4.839 0 0 1 4.833-4.834h25.334a4.839 4.839 0 0 1 4.833 4.834v3.708a1 1 0 0 1 -1 1zm-32-2h31v-2.708a2.837 2.837 0 0 0 -2.833-2.834h-25.334a2.837 2.837 0 0 0 -2.833 2.834z"/><path d="m43.887 29.562a1 1 0 0 1 -.617-1.787l6.106-4.775-6.106-4.775a1 1 0 0 1 1.23-1.575l7.114 5.562a1 1 0 0 1 0 1.576l-7.114 5.562a.994.994 0 0 1 -.613.212z"/><path d="m30.113 29.562a.994.994 0 0 1 -.615-.212l-7.114-5.562a1 1 0 0 1 0-1.576l7.116-5.562a1 1 0 0 1 1.232 1.575l-6.108 4.775 6.106 4.775a1 1 0 0 1 -.617 1.787z"/><path d="m33.637 35.773a1.016 1.016 0 0 1 -.276-.039 1 1 0 0 1 -.686-1.236l6.725-23.545a1 1 0 1 1 1.923.549l-6.723 23.545a1 1 0 0 1 -.963.726z"/></svg>