<svg id="Layer_1" enable-background="new 0 0 512 512" height="512" viewBox="0 0 512 512" width="512" xmlns="http://www.w3.org/2000/svg"><g><g><path d="m148.5 392.5c-22.091 0-40-17.909-40-40v-104.333l295 .833v103.5c0 22.091-17.909 40-40 40z" fill="#6f6571"/><path d="m403.5 249v103.5c0 22.09-17.91 40-40 40h-30c22.09 0 40-17.91 40-40v-103.5z" fill="#5d5360"/><path d="m291 51v-26c0-9.665-7.835-17.5-17.5-17.5-9.665 0-17.5 7.835-17.5 17.5l-10 16z" fill="#514a54"/><path d="m256 41v-16c0-9.665-7.835-17.5-17.5-17.5-9.665 0-17.5 7.835-17.5 17.5v26z" fill="#5d5360"/><path d="m181.5 392.5h-24c-44.183 0-80 35.817-80 80v12c0 11.046 8.954 20 20 20h317c11.046 0 20-8.954 20-20v-12c0-44.183-35.817-80-80-80h-30l-3.167 44.5-124.833 9.5z" fill="#ffc269"/><path d="m434.5 472.5v12c0 11.05-8.95 20-20 20h-30c11.05 0 20-8.95 20-20v-12c0-41.84-32.13-76.19-73.07-79.7l.07-.3h23c44.18 0 80 35.82 80 80z" fill="#ffa95f"/><g fill="#bc845e"><path d="m324.5 392.5h-20c-2.761 0-5-2.239-5-5v-56h-87v56c0 2.761-2.239 5-5 5h-20l-3 42.75 87 8.75 60-14.5z"/><path d="m148.5 198.5h-26.5c-16.845 0-30.5 13.655-30.5 30.5 0 16.845 13.655 30.5 30.5 30.5h26.5z"/><path d="m363.5 259.5h26.5c16.845 0 30.5-13.655 30.5-30.5 0-16.845-13.655-30.5-30.5-30.5h-26.5z"/></g><path d="m138.5 138.5v101.5c0 64.893 52.606 117.5 117.5 117.5 64.893 0 117.5-52.606 117.5-117.5v-101.5l-115.5-49z" fill="#d19a6e"/><path d="m373.5 138.5v101.5c0 32.44-13.15 61.82-34.42 83.08-21.26 21.27-50.64 34.42-83.08 34.42-5.08 0-10.09-.32-15-.95 26.45-3.37 50.15-15.53 68.08-33.47 21.27-21.26 34.42-50.64 34.42-83.08v-101.5z" fill="#bc845e"/><path d="m403.5 185v16.65c-4.07-2.02-8.65-3.15-13.5-3.15h-64c-38.66 0-70-31.34-70-70 0 19.33-7.84 36.83-20.5 49.5-12.67 12.66-30.17 20.5-49.5 20.5h-64c-4.85 0-9.43 1.13-13.5 3.15v-16.65c0-81.46 66.04-147.5 147.5-147.5 40.73 0 77.6 16.51 104.3 43.2 26.69 26.7 43.2 63.57 43.2 104.3z" fill="#6f6571"/><path d="m403.5 185v16.65c-4.07-2.02-8.65-3.15-13.5-3.15h-16.5v-13.5c0-40.73-16.51-77.6-43.2-104.3-23.38-23.37-54.56-38.94-89.3-42.45 4.93-.49 9.94-.75 15-.75 40.73 0 77.6 16.51 104.3 43.2 26.69 26.7 43.2 63.57 43.2 104.3z" fill="#5d5360"/><path d="m170.036 45.359c-6.168 1.921-10.741 5.424-13.73 9.696-1.976 2.823-6.17 2.823-8.146 0-2.99-4.272-7.562-7.775-13.73-9.696-3.664-1.141-7.623-1.148-11.286-.005-19.421 6.062-23.107 27.871-11.059 39.91.993.993 2.053 1.878 3.165 2.656 2.828 1.979 2.835 6.176.006 8.154-4.272 2.988-7.775 7.555-9.696 13.716-1.142 3.661-1.149 7.618-.005 11.279 6.066 19.407 27.89 23.091 39.937 11.051.995-.995 1.883-2.056 2.663-3.17 1.978-2.825 6.173-2.832 8.15-.006 2.99 4.272 7.562 7.775 13.73 9.697 3.664 1.141 7.623 1.148 11.286.005 19.421-6.062 23.107-27.871 11.059-39.91-.993-.993-2.053-1.878-3.165-2.656-2.831-1.981-2.831-6.177 0-8.158 1.112-.778 2.172-1.664 3.165-2.656 12.048-12.04 8.362-33.849-11.059-39.91-3.662-1.145-7.621-1.138-11.285.003z" fill="#90d8f9"/><path d="m192.38 98.74c12.05 12.04 8.36 33.84-11.06 39.91-3.66 1.14-7.62 1.13-11.28-.01-3.69-1.15-6.81-2.86-9.36-4.98 10.89-9 11.46-25.17 1.7-34.92-.99-1-2.05-1.88-3.16-2.66-2.84-1.98-2.84-6.18 0-8.16 1.11-.78 2.17-1.66 3.16-2.66 9.76-9.75 9.19-25.92-1.7-34.92 2.55-2.12 5.67-3.83 9.36-4.98 3.66-1.14 7.62-1.15 11.28-.01 19.42 6.07 23.11 27.87 11.06 39.91-.99 1-2.05 1.88-3.16 2.66-2.84 1.98-2.84 6.18 0 8.16 1.11.78 2.17 1.66 3.16 2.66z" fill="#75cef9"/><path d="m354.5 392.515v4.485c0 34.52-27.98 62.5-62.5 62.5h-72c-34.52 0-62.5-27.98-62.5-62.5v-4.5h30v7c0 16.57 13.43 30 30 30h77c16.57 0 30-13.43 30-30v-7.015s29.34.01 30 .03z" fill="#fff"/><path d="m354.5 392.51v4.49c0 .44 0 .88-.02 1.32-7.22-2.93-14.96-4.82-23.05-5.52l.07-.3h7.75c7.42 0 14.92 0 15.25.01z" fill="#faf2f3"/></g><g><path d="m212.563 291.076c12.147 10.317 26.74 15.474 41.362 15.474 14.607 0 29.245-5.151 41.487-15.452 3.169-2.667 3.576-7.398.91-10.567-2.669-3.169-7.396-3.578-10.568-.91-18.781 15.805-44.888 15.814-63.482.022-3.156-2.681-7.89-2.295-10.571.862s-2.296 7.89.862 10.571z"/><path d="m389.416 392.277c12.982-8.488 21.584-23.143 21.584-39.777v-91.85c10.238-6.815 17-18.456 17-31.65s-6.762-24.834-17-31.65v-12.35c0-70.736-47.629-130.555-112.5-149.076v-10.924c0-13.785-11.215-25-25-25-6.809 0-12.987 2.739-17.5 7.169-4.513-4.43-10.691-7.169-17.5-7.169-13.785 0-25 11.215-25 25v10.902c-6.77 1.93-13.421 4.327-19.931 7.196-2.943-2.082-6.3-3.745-10.013-4.904-5.144-1.605-10.59-1.604-15.751.004-6.256 1.948-11.58 5.347-15.573 9.913-3.994-4.566-9.317-7.964-15.572-9.913-5.162-1.608-10.608-1.609-15.751-.004-11.496 3.588-19.639 11.944-22.341 22.925-2.627 10.675.444 21.684 8.215 29.449.493.494 1.004.971 1.53 1.431-4.566 3.991-7.964 9.309-9.912 15.557-1.61 5.16-1.612 10.606-.005 15.75 1.938 6.201 5.276 11.415 9.658 15.335-4.681 14.956-7.054 30.536-7.054 46.359v12.35c-10.238 6.815-17 18.456-17 31.65s6.762 24.834 17 31.65v91.85c0 16.634 8.602 31.289 21.584 39.777-30.919 13.509-52.584 44.381-52.584 80.223v12c0 15.164 12.337 27.5 27.5 27.5h259c4.143 0 7.5-3.358 7.5-7.5s-3.357-7.5-7.5-7.5h-259c-6.893 0-12.5-5.607-12.5-12.5v-12c0-37.474 28.579-68.398 65.086-72.124 1.768 37.036 32.449 66.624 69.914 66.624h72c37.465 0 68.146-29.588 69.914-66.624 36.507 3.726 65.086 34.65 65.086 72.124v12c0 6.893-5.607 12.5-12.5 12.5h-23c-4.143 0-7.5 3.358-7.5 7.5s3.357 7.5 7.5 7.5h23c15.163 0 27.5-12.336 27.5-27.5v-12c0-35.842-21.665-66.714-52.584-80.223zm6.584-39.777c0 17.92-14.579 32.5-32.5 32.5h-56.5v-30.886c35.619-15.981 62.444-48.164 71.054-87.114h11.946c2.042 0 4.045-.167 6-.478zm-250-146.5h40c30.84 0 57.532-18.11 70-44.251 12.468 26.141 39.16 44.251 70 44.251h40v34c0 60.654-49.346 110-110 110s-110-49.346-110-110zm74 181.5v-27.792c11.406 3.436 23.489 5.292 36 5.292s24.594-1.856 36-5.292v27.792c0 6.893 5.607 12.5 12.5 12.5h12.487c-.268 12.176-10.249 22-22.487 22h-77c-12.239 0-22.219-9.824-22.487-22h12.487c6.893 0 12.5-5.607 12.5-12.5zm170-135.5h-9.579c.378-3.95.579-7.952.579-12v-3.5h9.5c4.143 0 7.5-3.358 7.5-7.5s-3.357-7.5-7.5-7.5h-9.5v-15.5h9c12.683 0 23 10.318 23 23s-10.317 23-23 23zm-116.5-237c5.514 0 10 4.486 10 10v7.444c-6.535-1.175-13.211-1.935-20-2.26v-5.184c0-5.514 4.486-10 10-10zm-45 10c0-5.514 4.486-10 10-10s10 4.486 10 10v5.184c-6.75.318-13.422 1.069-20 2.245zm-108.95 56.776c-.766-.536-1.493-1.147-2.163-1.816-4.024-4.021-5.614-9.724-4.253-15.255 1.418-5.761 5.881-10.205 12.244-12.19 2.19-.684 4.613-.681 6.821.006 4.21 1.311 7.604 3.675 9.816 6.835 2.329 3.33 6.149 5.318 10.218 5.318 4.067 0 7.888-1.988 10.218-5.318 2.211-3.16 5.605-5.524 9.815-6.835 2.208-.688 4.631-.69 6.821-.007 6.363 1.987 10.826 6.43 12.244 12.192 1.36 5.531-.229 11.233-4.253 15.255-.668.667-1.396 1.278-2.165 1.816-3.332 2.333-5.321 6.154-5.321 10.224s1.989 7.891 5.322 10.224c.768.538 1.496 1.148 2.164 1.816 4.023 4.021 5.613 9.724 4.253 15.255-1.418 5.761-5.881 10.205-12.244 12.191-2.19.684-4.613.681-6.821-.006-4.21-1.311-7.604-3.675-9.816-6.836-2.329-3.328-6.146-5.315-10.212-5.315-.001 0-.001 0-.002 0-4.069 0-7.892 1.989-10.224 5.319-.54.771-1.152 1.499-1.822 2.168-4.028 4.025-9.742 5.615-15.282 4.25-3.387-.834-9.476-3.532-12.194-12.232-.684-2.187-.682-4.604.007-6.809 1.311-4.203 3.674-7.592 6.835-9.803 3.33-2.329 5.318-6.148 5.319-10.215 0-4.074-1.99-7.899-5.325-10.232zm-3.55 103.224c0-13.398 1.882-26.596 5.595-39.312 10.593 2.511 21.491-.561 29.197-8.26.496-.496.978-1.01 1.44-1.54 3.993 4.566 9.317 7.965 15.573 9.913 2.583.805 5.237 1.207 7.89 1.207 2.647 0 5.292-.401 7.861-1.203 11.496-3.588 19.639-11.944 22.341-22.926 2.626-10.675-.444-21.684-8.215-29.449-.493-.493-1.005-.971-1.53-1.431.525-.46 1.037-.937 1.53-1.43 7.771-7.766 10.841-18.774 8.215-29.449-.52-2.114-1.247-4.129-2.155-6.033 16.59-6.688 34.142-10.087 52.258-10.087 77.196 0 140 62.804 140 140v6.478c-1.955-.312-3.958-.478-6-.478h-64c-34.463 0-62.5-28.038-62.5-62.5 0-4.142-3.357-7.5-7.5-7.5s-7.5 3.358-7.5 7.5c0 34.462-28.037 62.5-62.5 62.5h-64c-2.042 0-4.045.167-6 .478zm6 21h9v15.5h-9.5c-4.143 0-7.5 3.358-7.5 7.5s3.357 7.5 7.5 7.5h9.5v3.5c0 4.048.201 8.05.579 12h-9.579c-12.683 0-23-10.318-23-23s10.317-23 23-23zm26.5 179c-17.921 0-32.5-14.58-32.5-32.5v-85.978c1.955.312 3.958.478 6 .478h11.946c8.61 38.949 35.436 71.132 71.054 87.114v30.886zm143.5 67h-72c-29.32 0-53.352-23.063-54.915-52h14.928c.27 20.447 16.977 37 37.487 37h77c20.51 0 37.218-16.553 37.487-37h14.928c-1.563 28.937-25.595 52-54.915 52z"/><path d="m315.5 251.5c4.143 0 7.5-3.358 7.5-7.5v-15c0-4.142-3.357-7.5-7.5-7.5s-7.5 3.358-7.5 7.5v15c0 4.142 3.357 7.5 7.5 7.5z"/><path d="m196.5 251.5c4.143 0 7.5-3.358 7.5-7.5v-15c0-4.142-3.357-7.5-7.5-7.5s-7.5 3.358-7.5 7.5v15c0 4.142 3.357 7.5 7.5 7.5z"/><path d="m153.75 176h27.5c28.948 0 52.5-23.551 52.5-52.5 0-4.142-3.357-7.5-7.5-7.5s-7.5 3.358-7.5 7.5c0 20.678-16.822 37.5-37.5 37.5h-27.5c-4.143 0-7.5 3.358-7.5 7.5s3.357 7.5 7.5 7.5z"/><path d="m330.75 176h27.5c4.143 0 7.5-3.358 7.5-7.5s-3.357-7.5-7.5-7.5h-27.5c-20.678 0-37.5-16.822-37.5-37.5 0-4.142-3.357-7.5-7.5-7.5s-7.5 3.358-7.5 7.5c0 28.949 23.552 52.5 52.5 52.5z"/><circle cx="152" cy="92" r="10"/></g></g></svg>